<mxfile host="app.diagrams.net" modified="2022-07-22T11:08:31.080Z" agent="5.0 (Windows NT 10.0; Win64; x64) AppleWebKit/537.36 (KHTML, like Gecko) Chrome/103.0.0.0 Safari/537.36" etag="28j8vofCKqcD99_C8jte" version="20.1.4" type="github">
  <diagram id="C5RBs43oDa-KdzZeNtuy" name="Page-1">
    <mxGraphModel dx="1422" dy="762" grid="1" gridSize="10" guides="1" tooltips="1" connect="1" arrows="1" fold="1" page="1" pageScale="1" pageWidth="827" pageHeight="1169" math="0" shadow="0">
      <root>
        <mxCell id="WIyWlLk6GJQsqaUBKTNV-0" />
        <mxCell id="WIyWlLk6GJQsqaUBKTNV-1" parent="WIyWlLk6GJQsqaUBKTNV-0" />
        <mxCell id="zpM9yaMRsbEbwRPGaGET-3" value="" style="edgeStyle=orthogonalEdgeStyle;rounded=0;orthogonalLoop=1;jettySize=auto;html=1;" edge="1" parent="WIyWlLk6GJQsqaUBKTNV-1" source="zpM9yaMRsbEbwRPGaGET-1" target="zpM9yaMRsbEbwRPGaGET-2">
          <mxGeometry relative="1" as="geometry" />
        </mxCell>
        <mxCell id="zpM9yaMRsbEbwRPGaGET-5" value="" style="edgeStyle=orthogonalEdgeStyle;rounded=0;orthogonalLoop=1;jettySize=auto;html=1;" edge="1" parent="WIyWlLk6GJQsqaUBKTNV-1" source="zpM9yaMRsbEbwRPGaGET-1" target="zpM9yaMRsbEbwRPGaGET-4">
          <mxGeometry relative="1" as="geometry" />
        </mxCell>
        <mxCell id="zpM9yaMRsbEbwRPGaGET-8" value="" style="edgeStyle=orthogonalEdgeStyle;rounded=0;orthogonalLoop=1;jettySize=auto;html=1;" edge="1" parent="WIyWlLk6GJQsqaUBKTNV-1" source="zpM9yaMRsbEbwRPGaGET-1" target="zpM9yaMRsbEbwRPGaGET-7">
          <mxGeometry relative="1" as="geometry" />
        </mxCell>
        <mxCell id="zpM9yaMRsbEbwRPGaGET-10" value="" style="edgeStyle=orthogonalEdgeStyle;rounded=0;orthogonalLoop=1;jettySize=auto;html=1;" edge="1" parent="WIyWlLk6GJQsqaUBKTNV-1" source="zpM9yaMRsbEbwRPGaGET-1" target="zpM9yaMRsbEbwRPGaGET-9">
          <mxGeometry relative="1" as="geometry" />
        </mxCell>
        <mxCell id="zpM9yaMRsbEbwRPGaGET-1" value="图文档下载&lt;br&gt;" style="rounded=1;whiteSpace=wrap;html=1;" vertex="1" parent="WIyWlLk6GJQsqaUBKTNV-1">
          <mxGeometry x="354" y="50" width="120" height="60" as="geometry" />
        </mxCell>
        <mxCell id="zpM9yaMRsbEbwRPGaGET-22" style="edgeStyle=orthogonalEdgeStyle;rounded=0;orthogonalLoop=1;jettySize=auto;html=1;" edge="1" parent="WIyWlLk6GJQsqaUBKTNV-1" source="zpM9yaMRsbEbwRPGaGET-2" target="zpM9yaMRsbEbwRPGaGET-11">
          <mxGeometry relative="1" as="geometry" />
        </mxCell>
        <mxCell id="zpM9yaMRsbEbwRPGaGET-2" value="可视化" style="rounded=1;whiteSpace=wrap;html=1;" vertex="1" parent="WIyWlLk6GJQsqaUBKTNV-1">
          <mxGeometry x="80" y="180" width="120" height="60" as="geometry" />
        </mxCell>
        <mxCell id="zpM9yaMRsbEbwRPGaGET-17" style="edgeStyle=orthogonalEdgeStyle;rounded=0;orthogonalLoop=1;jettySize=auto;html=1;entryX=0.5;entryY=0;entryDx=0;entryDy=0;" edge="1" parent="WIyWlLk6GJQsqaUBKTNV-1" source="zpM9yaMRsbEbwRPGaGET-4" target="zpM9yaMRsbEbwRPGaGET-11">
          <mxGeometry relative="1" as="geometry">
            <mxPoint x="410" y="390" as="targetPoint" />
          </mxGeometry>
        </mxCell>
        <mxCell id="zpM9yaMRsbEbwRPGaGET-4" value="主内容下载" style="rounded=1;whiteSpace=wrap;html=1;" vertex="1" parent="WIyWlLk6GJQsqaUBKTNV-1">
          <mxGeometry x="270" y="180" width="120" height="60" as="geometry" />
        </mxCell>
        <mxCell id="zpM9yaMRsbEbwRPGaGET-18" style="edgeStyle=orthogonalEdgeStyle;rounded=0;orthogonalLoop=1;jettySize=auto;html=1;entryX=0.5;entryY=0;entryDx=0;entryDy=0;" edge="1" parent="WIyWlLk6GJQsqaUBKTNV-1" source="zpM9yaMRsbEbwRPGaGET-7" target="zpM9yaMRsbEbwRPGaGET-11">
          <mxGeometry relative="1" as="geometry" />
        </mxCell>
        <mxCell id="zpM9yaMRsbEbwRPGaGET-7" value="附件下载" style="rounded=1;whiteSpace=wrap;html=1;" vertex="1" parent="WIyWlLk6GJQsqaUBKTNV-1">
          <mxGeometry x="440" y="180" width="120" height="60" as="geometry" />
        </mxCell>
        <mxCell id="zpM9yaMRsbEbwRPGaGET-21" style="edgeStyle=orthogonalEdgeStyle;rounded=0;orthogonalLoop=1;jettySize=auto;html=1;entryX=0.5;entryY=0;entryDx=0;entryDy=0;" edge="1" parent="WIyWlLk6GJQsqaUBKTNV-1" source="zpM9yaMRsbEbwRPGaGET-9" target="zpM9yaMRsbEbwRPGaGET-11">
          <mxGeometry relative="1" as="geometry" />
        </mxCell>
        <mxCell id="zpM9yaMRsbEbwRPGaGET-9" value="全部文件下载" style="rounded=1;whiteSpace=wrap;html=1;" vertex="1" parent="WIyWlLk6GJQsqaUBKTNV-1">
          <mxGeometry x="630" y="180" width="120" height="60" as="geometry" />
        </mxCell>
        <mxCell id="zpM9yaMRsbEbwRPGaGET-25" style="edgeStyle=orthogonalEdgeStyle;rounded=0;orthogonalLoop=1;jettySize=auto;html=1;fontSize=18;" edge="1" parent="WIyWlLk6GJQsqaUBKTNV-1" source="zpM9yaMRsbEbwRPGaGET-11" target="zpM9yaMRsbEbwRPGaGET-26">
          <mxGeometry relative="1" as="geometry">
            <mxPoint x="700" y="730" as="targetPoint" />
          </mxGeometry>
        </mxCell>
        <mxCell id="zpM9yaMRsbEbwRPGaGET-30" style="edgeStyle=orthogonalEdgeStyle;rounded=0;orthogonalLoop=1;jettySize=auto;html=1;fontSize=18;entryX=0.5;entryY=0;entryDx=0;entryDy=0;" edge="1" parent="WIyWlLk6GJQsqaUBKTNV-1" source="zpM9yaMRsbEbwRPGaGET-11" target="zpM9yaMRsbEbwRPGaGET-32">
          <mxGeometry relative="1" as="geometry">
            <mxPoint x="415" y="650" as="targetPoint" />
          </mxGeometry>
        </mxCell>
        <mxCell id="zpM9yaMRsbEbwRPGaGET-11" value="&lt;font style=&quot;font-size: 18px;&quot;&gt;&lt;br&gt;通过图文档id来查询是否有文档权限&lt;br&gt;&lt;br&gt;&lt;/font&gt;" style="rhombus;whiteSpace=wrap;html=1;" vertex="1" parent="WIyWlLk6GJQsqaUBKTNV-1">
          <mxGeometry x="189" y="360" width="450" height="110" as="geometry" />
        </mxCell>
        <mxCell id="zpM9yaMRsbEbwRPGaGET-23" value="请求下载接口&lt;br&gt;" style="text;html=1;align=center;verticalAlign=middle;resizable=0;points=[];autosize=1;strokeColor=none;fillColor=none;fontSize=18;" vertex="1" parent="WIyWlLk6GJQsqaUBKTNV-1">
          <mxGeometry x="440" y="300" width="130" height="40" as="geometry" />
        </mxCell>
        <mxCell id="zpM9yaMRsbEbwRPGaGET-26" value="结束" style="rounded=1;whiteSpace=wrap;html=1;fontSize=18;" vertex="1" parent="WIyWlLk6GJQsqaUBKTNV-1">
          <mxGeometry x="700" y="385" width="120" height="60" as="geometry" />
        </mxCell>
        <mxCell id="zpM9yaMRsbEbwRPGaGET-27" value="否" style="text;html=1;align=center;verticalAlign=middle;resizable=0;points=[];autosize=1;strokeColor=none;fillColor=none;fontSize=18;" vertex="1" parent="WIyWlLk6GJQsqaUBKTNV-1">
          <mxGeometry x="639" y="430" width="40" height="40" as="geometry" />
        </mxCell>
        <mxCell id="zpM9yaMRsbEbwRPGaGET-29" value="是" style="text;html=1;align=center;verticalAlign=middle;resizable=0;points=[];autosize=1;strokeColor=none;fillColor=none;fontSize=18;" vertex="1" parent="WIyWlLk6GJQsqaUBKTNV-1">
          <mxGeometry x="354" y="570" width="40" height="40" as="geometry" />
        </mxCell>
        <mxCell id="zpM9yaMRsbEbwRPGaGET-34" style="edgeStyle=orthogonalEdgeStyle;rounded=0;orthogonalLoop=1;jettySize=auto;html=1;fontSize=18;entryX=0.5;entryY=0;entryDx=0;entryDy=0;" edge="1" parent="WIyWlLk6GJQsqaUBKTNV-1" source="zpM9yaMRsbEbwRPGaGET-32" target="zpM9yaMRsbEbwRPGaGET-45">
          <mxGeometry relative="1" as="geometry">
            <mxPoint x="210" y="600" as="targetPoint" />
          </mxGeometry>
        </mxCell>
        <mxCell id="zpM9yaMRsbEbwRPGaGET-36" style="edgeStyle=orthogonalEdgeStyle;rounded=0;orthogonalLoop=1;jettySize=auto;html=1;fontSize=18;" edge="1" parent="WIyWlLk6GJQsqaUBKTNV-1" source="zpM9yaMRsbEbwRPGaGET-32" target="zpM9yaMRsbEbwRPGaGET-39">
          <mxGeometry relative="1" as="geometry">
            <mxPoint x="415" y="930" as="targetPoint" />
          </mxGeometry>
        </mxCell>
        <mxCell id="zpM9yaMRsbEbwRPGaGET-32" value="是否为主内容下载或全部文件下载" style="rhombus;whiteSpace=wrap;html=1;fontSize=18;" vertex="1" parent="WIyWlLk6GJQsqaUBKTNV-1">
          <mxGeometry x="289" y="540" width="250" height="80" as="geometry" />
        </mxCell>
        <mxCell id="zpM9yaMRsbEbwRPGaGET-33" value="==" style="text;html=1;align=center;verticalAlign=middle;resizable=0;points=[];autosize=1;strokeColor=none;fillColor=none;fontSize=18;" vertex="1" parent="WIyWlLk6GJQsqaUBKTNV-1">
          <mxGeometry x="220" y="190" width="40" height="40" as="geometry" />
        </mxCell>
        <mxCell id="zpM9yaMRsbEbwRPGaGET-37" value="是" style="text;html=1;align=center;verticalAlign=middle;resizable=0;points=[];autosize=1;strokeColor=none;fillColor=none;fontSize=18;" vertex="1" parent="WIyWlLk6GJQsqaUBKTNV-1">
          <mxGeometry x="180" y="520" width="40" height="40" as="geometry" />
        </mxCell>
        <mxCell id="zpM9yaMRsbEbwRPGaGET-38" value="否" style="text;html=1;align=center;verticalAlign=middle;resizable=0;points=[];autosize=1;strokeColor=none;fillColor=none;fontSize=18;" vertex="1" parent="WIyWlLk6GJQsqaUBKTNV-1">
          <mxGeometry x="430" y="780" width="40" height="40" as="geometry" />
        </mxCell>
        <mxCell id="zpM9yaMRsbEbwRPGaGET-51" value="" style="edgeStyle=orthogonalEdgeStyle;rounded=0;orthogonalLoop=1;jettySize=auto;html=1;fontSize=18;" edge="1" parent="WIyWlLk6GJQsqaUBKTNV-1" source="zpM9yaMRsbEbwRPGaGET-39" target="zpM9yaMRsbEbwRPGaGET-50">
          <mxGeometry relative="1" as="geometry" />
        </mxCell>
        <mxCell id="zpM9yaMRsbEbwRPGaGET-39" value="调用下载图文档方法下载未下载文档" style="rounded=1;whiteSpace=wrap;html=1;fontSize=18;" vertex="1" parent="WIyWlLk6GJQsqaUBKTNV-1">
          <mxGeometry x="326" y="700" width="175" height="100" as="geometry" />
        </mxCell>
        <mxCell id="zpM9yaMRsbEbwRPGaGET-46" style="edgeStyle=orthogonalEdgeStyle;rounded=0;orthogonalLoop=1;jettySize=auto;html=1;fontSize=18;entryX=0;entryY=0.5;entryDx=0;entryDy=0;" edge="1" parent="WIyWlLk6GJQsqaUBKTNV-1" source="zpM9yaMRsbEbwRPGaGET-45" target="zpM9yaMRsbEbwRPGaGET-39">
          <mxGeometry relative="1" as="geometry">
            <mxPoint x="420" y="840" as="targetPoint" />
          </mxGeometry>
        </mxCell>
        <mxCell id="zpM9yaMRsbEbwRPGaGET-45" value="校验主内容文件是否下载过" style="rhombus;whiteSpace=wrap;html=1;fontSize=18;" vertex="1" parent="WIyWlLk6GJQsqaUBKTNV-1">
          <mxGeometry x="120" y="630" width="120" height="80" as="geometry" />
        </mxCell>
        <mxCell id="zpM9yaMRsbEbwRPGaGET-53" style="edgeStyle=orthogonalEdgeStyle;rounded=0;orthogonalLoop=1;jettySize=auto;html=1;fontSize=18;" edge="1" parent="WIyWlLk6GJQsqaUBKTNV-1" source="zpM9yaMRsbEbwRPGaGET-50" target="zpM9yaMRsbEbwRPGaGET-54">
          <mxGeometry relative="1" as="geometry">
            <mxPoint x="414" y="1020" as="targetPoint" />
          </mxGeometry>
        </mxCell>
        <mxCell id="zpM9yaMRsbEbwRPGaGET-50" value="文件数量为1直接返回,文件数量大于1打包返回" style="rounded=1;whiteSpace=wrap;html=1;fontSize=18;" vertex="1" parent="WIyWlLk6GJQsqaUBKTNV-1">
          <mxGeometry x="326.5" y="850" width="175" height="100" as="geometry" />
        </mxCell>
        <mxCell id="zpM9yaMRsbEbwRPGaGET-54" value="主文档保留,留记录,其余文件删除" style="rounded=1;whiteSpace=wrap;html=1;fontSize=18;" vertex="1" parent="WIyWlLk6GJQsqaUBKTNV-1">
          <mxGeometry x="354" y="990" width="120" height="60" as="geometry" />
        </mxCell>
      </root>
    </mxGraphModel>
  </diagram>
</mxfile>
